<?xml version="1.0" encoding="UTF-8" standalone="no"?>
<!-- Created with Inkscape (http://www.inkscape.org/) -->

<svg
   version="1.1"
   id="svg1"
   width="755.90533"
   height="331.68268"
   viewBox="0 0 755.90533 331.68268"
   sodipodi:docname="Gmarket_Brand_Logo_RGB.ai"
   xmlns:inkscape="http://www.inkscape.org/namespaces/inkscape"
   xmlns:sodipodi="http://sodipodi.sourceforge.net/DTD/sodipodi-0.dtd"
   xmlns="http://www.w3.org/2000/svg"
   xmlns:svg="http://www.w3.org/2000/svg">
  <defs
     id="defs1">
    <clipPath
       clipPathUnits="userSpaceOnUse"
       id="clipPath2">
      <path
         d="M 0,248.762 H 566.929 V 0 H 0 Z"
         transform="translate(-124.1442,-67.732102)"
         id="path2" />
    </clipPath>
    <clipPath
       clipPathUnits="userSpaceOnUse"
       id="clipPath4">
      <path
         d="M 0,248.762 H 566.929 V 0 H 0 Z"
         transform="translate(-135.0685,-124.0934)"
         id="path4" />
    </clipPath>
    <clipPath
       clipPathUnits="userSpaceOnUse"
       id="clipPath6">
      <path
         d="M 0,248.762 H 566.929 V 0 H 0 Z"
         transform="translate(-349.75111,-133.06271)"
         id="path6" />
    </clipPath>
    <clipPath
       clipPathUnits="userSpaceOnUse"
       id="clipPath8">
      <path
         d="M 0,248.762 H 566.929 V 0 H 0 Z"
         transform="translate(-238.02751,-135.7028)"
         id="path8" />
    </clipPath>
    <clipPath
       clipPathUnits="userSpaceOnUse"
       id="clipPath10">
      <path
         d="M 0,248.762 H 566.929 V 0 H 0 Z"
         transform="translate(-293.67201,-93.572002)"
         id="path10" />
    </clipPath>
    <clipPath
       clipPathUnits="userSpaceOnUse"
       id="clipPath12">
      <path
         d="M 0,248.762 H 566.929 V 0 H 0 Z"
         transform="translate(-499.19741,-120.23801)"
         id="path12" />
    </clipPath>
    <clipPath
       clipPathUnits="userSpaceOnUse"
       id="clipPath14">
      <path
         d="M 0,248.762 H 566.929 V 0 H 0 Z"
         transform="translate(-414.32731,-134.40251)"
         id="path14" />
    </clipPath>
    <clipPath
       clipPathUnits="userSpaceOnUse"
       id="clipPath16">
      <path
         d="M 0,248.762 H 566.929 V 0 H 0 Z"
         transform="translate(-437.63101,-121.7922)"
         id="path16" />
    </clipPath>
  </defs>
  <sodipodi:namedview
     id="namedview1"
     pagecolor="#ffffff"
     bordercolor="#000000"
     borderopacity="0.25"
     inkscape:showpageshadow="2"
     inkscape:pageopacity="0.0"
     inkscape:pagecheckerboard="0"
     inkscape:deskcolor="#d1d1d1">
    <inkscape:page
       x="0"
       y="0"
       inkscape:label="1"
       id="page1"
       width="755.90533"
       height="331.68268"
       margin="90.309464 90.309334 90.309334 90.309464"
       bleed="0" />
  </sodipodi:namedview>
  <g
     id="layer-MC0"
     inkscape:groupmode="layer"
     inkscape:label="Gmarket Logo">
    <path
       id="path1"
       d="m 0,0 c -31.106,0 -56.412,25.413 -56.412,56.649 0,31.237 25.306,56.649 56.412,56.649 13.132,0 25.843,-4.57 35.79,-12.87 2.541,-2.12 4.247,-5.552 4.247,-8.539 0,-2.841 -1.101,-5.512 -3.101,-7.52 -2.001,-2.009 -4.661,-3.116 -7.49,-3.116 -2.418,0 -4.834,0.885 -6.801,2.489 C 16.377,88.853 7.701,92.027 0,92.027 c -19.423,0 -35.225,-15.873 -35.225,-35.383 0,-19.504 15.802,-35.373 35.225,-35.373 18.007,0 29.1,12.919 29.1,24.743 H 0.62 v 20.695 h 39.612 c 5.512,0 10.08,-4.154 10.545,-9.669 0.165,-1.958 0.221,-3.439 0.221,-4.8 0,-13.845 -3.751,-26.887 -13.461,-36.725 C 27.661,5.51 15.835,0 0,0"
       style="fill:#00c01e;fill-opacity:1;fill-rule:nonzero;stroke:none"
       transform="matrix(1.3333333,0,0,-1.3333333,165.5256,241.3732)"
       clip-path="url(#clipPath2)" />
    <path
       id="path3"
       d="m 0,0 c 0,-5.715 -4.613,-10.348 -10.305,-10.348 -5.691,0 -10.304,4.633 -10.304,10.348 0,5.715 4.613,10.348 10.304,10.348 C -4.613,10.348 0,5.715 0,0"
       style="fill:#0028ac;fill-opacity:1;fill-rule:nonzero;stroke:none"
       transform="matrix(1.3333333,0,0,-1.3333333,180.09133,166.2248)"
       clip-path="url(#clipPath4)" />
    <path
       id="path5"
       d="m 0,0 c -1.613,-0.581 -3.148,-1.399 -4.611,-2.375 v 3.706 h -13.951 v -53.547 h 13.951 v 26.498 l 0.01,0.003 c 0,7.222 5.876,13.097 13.098,13.097 H 9.238 V 1.331 H 8.497 C 5.53,1.331 2.673,0.963 0,0"
       style="fill:#0028ac;fill-opacity:1;fill-rule:nonzero;stroke:none"
       transform="matrix(1.3333333,0,0,-1.3333333,466.3348,154.26573)"
       clip-path="url(#clipPath6)" />
    <path
       id="path7"
       d="M 0,0 C -6.236,0 -11.894,-2.492 -16.059,-6.518 -20.224,-2.492 -25.881,0 -32.118,0 -44.876,0 -55.255,-10.378 -55.255,-23.137 v -31.684 h 14.162 v 31.684 c 0,4.95 4.026,8.977 8.975,8.977 4.949,0 8.975,-4.027 8.975,-8.977 v -31.719 h 14.162 v 0.035 h 0.006 v 31.684 c 0,4.95 4.026,8.977 8.975,8.977 4.95,0 8.976,-4.027 8.976,-8.977 v -31.719 h 14.162 v 31.719 C 23.138,-10.378 12.758,0 0,0"
       style="fill:#0028ac;fill-opacity:1;fill-rule:nonzero;stroke:none"
       transform="matrix(1.3333333,0,0,-1.3333333,317.37,150.7456)"
       clip-path="url(#clipPath8)" />
    <path
       id="path9"
       d="m 0,0 c -7.747,0 -14.05,6.301 -14.05,14.048 0,7.747 6.303,14.049 14.05,14.049 7.747,0 14.05,-6.302 14.05,-14.049 C 14.05,6.301 7.747,0 0,0 m 14.112,37 c -0.729,0.667 -2.299,1.631 -3.408,2.119 C 7.362,40.588 3.879,41.414 0,41.414 c -15.09,0 -27.365,-12.277 -27.365,-27.366 0,-15.089 12.275,-27.366 27.365,-27.366 3.868,0 7.341,0.821 10.675,2.283 1.119,0.49 2.532,1.343 3.437,2.131 v -3.822 H 27.428 V 40.822 H 14.112 Z"
       style="fill:#0028ac;fill-opacity:1;fill-rule:nonzero;stroke:none"
       transform="matrix(1.3333333,0,0,-1.3333333,391.56267,206.92)"
       clip-path="url(#clipPath10)" />
    <path
       id="path11"
       d="M 0,0 V 14.16 H -11.974 V 25.701 H -26.135 V 14.16 h -6.102 V 0 h 6.102 v -19.228 c 0,-11.115 9.044,-20.158 20.159,-20.158 h 5.266 v 14.16 h -5.266 c -3.306,0 -5.998,2.691 -5.998,5.998 l 0,19.228 z"
       style="fill:#0028ac;fill-opacity:1;fill-rule:nonzero;stroke:none"
       transform="matrix(1.3333333,0,0,-1.3333333,665.59653,171.36533)"
       clip-path="url(#clipPath12)" />
    <path
       id="path13"
       d="M 0,0 H -19.131 L -35.963,-18.501 V 19.631 H -50.196 V -53.55 h 14.233 v 18.483 l 17.526,-18.483 h 19.34 l -25.771,26.949 z"
       style="fill:#0028ac;fill-opacity:1;fill-rule:nonzero;stroke:none"
       transform="matrix(1.3333333,0,0,-1.3333333,552.4364,152.47933)"
       clip-path="url(#clipPath14)" />
    <path
       id="path15"
       d="M 0,0 C 6.524,0 10.932,-3.371 12.701,-8.588 H -12.936 C -10.922,-3.311 -6.435,0 0,0 m 26.74,-14.279 c -0.349,14.527 -8.819,27.558 -26.763,27.558 -16.008,0 -27.193,-12.378 -27.193,-27.409 v -0.197 c 0,-16.11 12.211,-27.211 28.732,-27.211 9.953,0 17.341,3.732 22.472,9.823 l -9.449,8.042 c -4.029,-3.58 -7.992,-4.699 -12.818,-4.699 -6.128,0 -12.203,2.047 -14.251,7.806 h 38.611 c 0,0 0.74,2.911 0.659,6.287"
       style="fill:#0028ac;fill-opacity:1;fill-rule:nonzero;stroke:none"
       transform="matrix(1.3333333,0,0,-1.3333333,583.508,169.29307)"
       clip-path="url(#clipPath16)" />
  </g>
</svg>
